<svg width="382" height="174" viewBox="0 0 382 174" fill="none" xmlns="http://www.w3.org/2000/svg">
<path d="M187.456 84.4C186.283 84.4 185.11 84.3067 183.936 84.12C182.763 83.96 181.656 83.7067 180.616 83.36C179.576 82.9867 178.643 82.5333 177.816 82C177.336 81.68 177.003 81.2933 176.816 80.84C176.63 80.3867 176.563 79.9467 176.616 79.52C176.696 79.0667 176.87 78.68 177.136 78.36C177.43 78.0133 177.79 77.8 178.216 77.72C178.643 77.64 179.11 77.76 179.616 78.08C180.79 78.7733 182.03 79.28 183.336 79.6C184.643 79.92 186.016 80.08 187.456 80.08C189.563 80.08 191.096 79.7333 192.056 79.04C193.016 78.32 193.496 77.4 193.496 76.28C193.496 75.3467 193.15 74.6133 192.456 74.08C191.79 73.5467 190.63 73.1067 188.976 72.76L184.576 71.84C182.043 71.3067 180.15 70.4133 178.896 69.16C177.67 67.88 177.056 66.2 177.056 64.12C177.056 62.8133 177.323 61.6267 177.856 60.56C178.39 59.4933 179.136 58.5733 180.096 57.8C181.083 57.0267 182.243 56.44 183.576 56.04C184.936 55.6133 186.43 55.4 188.056 55.4C189.656 55.4 191.176 55.6 192.616 56C194.056 56.4 195.35 56.9867 196.496 57.76C196.923 58.0533 197.203 58.4133 197.336 58.84C197.496 59.2667 197.536 59.6933 197.456 60.12C197.376 60.52 197.19 60.8667 196.896 61.16C196.603 61.4533 196.23 61.6267 195.776 61.68C195.35 61.7333 194.856 61.6 194.296 61.28C193.31 60.72 192.31 60.32 191.296 60.08C190.283 59.84 189.19 59.72 188.016 59.72C186.79 59.72 185.736 59.8933 184.856 60.24C183.976 60.5867 183.296 61.08 182.816 61.72C182.363 62.3333 182.136 63.0667 182.136 63.92C182.136 64.88 182.456 65.6533 183.096 66.24C183.736 66.8 184.83 67.24 186.376 67.56L190.736 68.48C193.376 69.04 195.336 69.92 196.616 71.12C197.923 72.32 198.576 73.92 198.576 75.92C198.576 77.2 198.31 78.36 197.776 79.4C197.27 80.44 196.523 81.3333 195.536 82.08C194.576 82.8267 193.416 83.4 192.056 83.8C190.696 84.2 189.163 84.4 187.456 84.4ZM216.091 84.4C213.157 84.4 210.637 83.8133 208.531 82.64C206.451 81.44 204.851 79.76 203.731 77.6C202.611 75.4133 202.051 72.84 202.051 69.88C202.051 67.6667 202.371 65.68 203.011 63.92C203.651 62.1333 204.571 60.6133 205.771 59.36C206.971 58.08 208.437 57.1067 210.171 56.44C211.931 55.7467 213.904 55.4 216.091 55.4C217.557 55.4 218.997 55.5867 220.411 55.96C221.824 56.3333 223.064 56.8667 224.131 57.56C224.691 57.9067 225.064 58.3333 225.251 58.84C225.437 59.32 225.477 59.8 225.371 60.28C225.264 60.7333 225.037 61.12 224.691 61.44C224.371 61.76 223.957 61.9467 223.451 62C222.971 62.0267 222.437 61.8533 221.851 61.48C221.024 60.9467 220.131 60.56 219.171 60.32C218.211 60.08 217.237 59.96 216.251 59.96C214.357 59.96 212.757 60.3467 211.451 61.12C210.144 61.8933 209.157 63.0133 208.491 64.48C207.824 65.9467 207.491 67.7467 207.491 69.88C207.491 71.9867 207.824 73.7867 208.491 75.28C209.157 76.7733 210.144 77.9067 211.451 78.68C212.757 79.4533 214.357 79.84 216.251 79.84C217.264 79.84 218.264 79.72 219.251 79.48C220.237 79.2133 221.171 78.8133 222.051 78.28C222.637 77.9333 223.157 77.7867 223.611 77.84C224.091 77.8667 224.491 78.0267 224.811 78.32C225.131 78.6133 225.344 78.9867 225.451 79.44C225.557 79.8667 225.531 80.32 225.371 80.8C225.211 81.2533 224.891 81.6533 224.411 82C223.344 82.7733 222.064 83.3733 220.571 83.8C219.104 84.2 217.611 84.4 216.091 84.4ZM241.9 84.4C239.18 84.4 236.793 83.8 234.74 82.6C232.713 81.4 231.14 79.72 230.02 77.56C228.9 75.3733 228.34 72.8133 228.34 69.88C228.34 67.6667 228.66 65.68 229.3 63.92C229.94 62.1333 230.846 60.6133 232.02 59.36C233.22 58.08 234.646 57.1067 236.3 56.44C237.98 55.7467 239.846 55.4 241.9 55.4C244.646 55.4 247.033 56 249.06 57.2C251.086 58.3733 252.66 60.04 253.78 62.2C254.9 64.36 255.46 66.9067 255.46 69.84C255.46 72.0533 255.14 74.0533 254.5 75.84C253.86 77.6267 252.94 79.16 251.74 80.44C250.566 81.72 249.14 82.7067 247.46 83.4C245.806 84.0667 243.953 84.4 241.9 84.4ZM241.9 80C243.633 80 245.1 79.6 246.3 78.8C247.526 78 248.46 76.84 249.1 75.32C249.766 73.8 250.1 71.9867 250.1 69.88C250.1 66.68 249.38 64.2 247.94 62.44C246.526 60.68 244.513 59.8 241.9 59.8C240.193 59.8 238.726 60.2 237.5 61C236.273 61.7733 235.326 62.92 234.66 64.44C234.02 65.9333 233.7 67.7467 233.7 69.88C233.7 73.0533 234.42 75.5333 235.86 77.32C237.3 79.1067 239.313 80 241.9 80ZM263.226 84.32C262.399 84.32 261.759 84.0933 261.306 83.64C260.879 83.16 260.666 82.5067 260.666 81.68V58.4C260.666 57.5467 260.893 56.9067 261.346 56.48C261.799 56.0267 262.439 55.8 263.266 55.8H272.906C275.999 55.8 278.386 56.5733 280.066 58.12C281.746 59.6667 282.586 61.8267 282.586 64.6C282.586 67.3733 281.746 69.5467 280.066 71.12C278.386 72.6667 275.999 73.44 272.906 73.44H265.786V81.68C265.786 82.5067 265.573 83.16 265.146 83.64C264.719 84.0933 264.079 84.32 263.226 84.32ZM265.786 69.4H272.106C273.919 69.4 275.293 69 276.226 68.2C277.159 67.3733 277.626 66.1733 277.626 64.6C277.626 63.0267 277.159 61.84 276.226 61.04C275.293 60.24 273.919 59.84 272.106 59.84H265.786V69.4ZM284.11 84.32C283.47 84.32 282.95 84.1733 282.55 83.88C282.177 83.5867 281.95 83.2 281.87 82.72C281.79 82.2133 281.883 81.6533 282.15 81.04L292.71 57.64C293.057 56.8667 293.47 56.32 293.95 56C294.457 55.6533 295.03 55.48 295.67 55.48C296.283 55.48 296.83 55.6533 297.31 56C297.817 56.32 298.243 56.8667 298.59 57.64L309.19 81.04C309.483 81.6533 309.59 82.2133 309.51 82.72C309.43 83.2267 309.203 83.6267 308.83 83.92C308.457 84.1867 307.963 84.32 307.35 84.32C306.603 84.32 306.017 84.1467 305.59 83.8C305.19 83.4267 304.83 82.8667 304.51 82.12L301.91 76.08L304.07 77.48H287.19L289.35 76.08L286.79 82.12C286.443 82.8933 286.083 83.4533 285.71 83.8C285.337 84.1467 284.803 84.32 284.11 84.32ZM295.59 61.36L289.99 74.68L288.95 73.4H302.31L301.31 74.68L295.67 61.36H295.59ZM316.156 84.32C315.329 84.32 314.689 84.0933 314.236 83.64C313.809 83.16 313.596 82.5067 313.596 81.68V58.4C313.596 57.5467 313.822 56.9067 314.276 56.48C314.729 56.0267 315.369 55.8 316.196 55.8H325.836C328.929 55.8 331.316 56.5467 332.996 58.04C334.676 59.5067 335.516 61.5733 335.516 64.24C335.516 65.9733 335.129 67.4667 334.356 68.72C333.609 69.9733 332.516 70.9333 331.076 71.6C329.636 72.2667 327.889 72.6 325.836 72.6L326.196 72H327.516C328.609 72 329.556 72.2667 330.356 72.8C331.182 73.3333 331.902 74.1733 332.516 75.32L335.516 80.88C335.836 81.44 335.982 81.9867 335.956 82.52C335.929 83.0533 335.729 83.4933 335.356 83.84C334.982 84.16 334.436 84.32 333.716 84.32C332.996 84.32 332.409 84.1733 331.956 83.88C331.502 83.56 331.102 83.08 330.756 82.44L326.716 75C326.236 74.0933 325.662 73.4933 324.996 73.2C324.356 72.88 323.529 72.72 322.516 72.72H318.716V81.68C318.716 82.5067 318.502 83.16 318.076 83.64C317.649 84.0933 317.009 84.32 316.156 84.32ZM318.716 68.92H324.956C326.796 68.92 328.182 68.5467 329.116 67.8C330.076 67.0267 330.556 65.88 330.556 64.36C330.556 62.8667 330.076 61.7467 329.116 61C328.182 60.2267 326.796 59.84 324.956 59.84H318.716V68.92ZM349.596 84.32C348.77 84.32 348.13 84.0933 347.676 83.64C347.25 83.16 347.036 82.5067 347.036 81.68V60.08H339.236C338.543 60.08 337.996 59.8933 337.596 59.52C337.223 59.12 337.036 58.5867 337.036 57.92C337.036 57.2267 337.223 56.7067 337.596 56.36C337.996 55.9867 338.543 55.8 339.236 55.8H359.956C360.65 55.8 361.183 55.9867 361.556 56.36C361.956 56.7067 362.156 57.2267 362.156 57.92C362.156 58.5867 361.956 59.12 361.556 59.52C361.183 59.8933 360.65 60.08 359.956 60.08H352.156V81.68C352.156 82.5067 351.943 83.16 351.516 83.64C351.09 84.0933 350.45 84.32 349.596 84.32Z" fill="white"/>
<path d="M110.254 46.7886L99.4179 42.9491C99.739 43.8785 99.9325 44.8472 99.9932 45.8287C100.281 51.4924 96.9245 60.0349 92.5132 62.6267L103.445 66.4663C106.994 63.395 111.117 51.9716 110.254 46.7878V46.7886Z" fill="#EDDDD1"/>
<path d="M105.363 67.3311L106.802 67.811C107.102 66.2027 107.989 64.7637 109.291 63.7747C110.593 62.7856 112.217 62.3174 113.845 62.4611C115.473 62.6049 116.989 63.3504 118.098 64.5523C119.207 65.7543 119.829 67.3265 119.844 68.9626C119.828 70.0321 119.565 71.0835 119.076 72.0344H119.268C123.391 72.8984 128.186 62.9153 127.994 56.5792C127.898 54.2755 127.131 52.6434 125.788 52.2594L112.268 47.5559C112.652 53.1233 109.008 63.3946 105.363 67.3306L105.363 67.3311Z" fill="#EDDDD1"/>
<path d="M146.886 65.3152H146.79L139.31 62.7233V62.5315C139.214 60.2278 138.255 59.4598 137.679 59.1722C137.667 59.1725 137.654 59.1702 137.642 59.1654C137.631 59.1607 137.62 59.1536 137.611 59.1447C137.602 59.1357 137.595 59.125 137.59 59.1133C137.586 59.1015 137.583 59.0889 137.584 59.0763L129.912 56.3884V56.5802C130.104 61.4759 127.706 67.8114 124.734 71.3634L132.405 74.0512C133.652 74.4353 135.091 73.2831 135.954 72.3233L143.434 74.9152C146.31 76.0669 149.955 66.8519 146.886 65.3156L146.886 65.3152Z" fill="#EDDDD1"/>
<path d="M96.7322 53.2199C98.4584 48.3243 98.6501 42.7568 95.7734 41.7968C95.4929 41.7176 95.2013 41.6852 94.9102 41.7008C92.1294 41.7008 89.2523 46.1166 87.9101 50.1483C87.0728 52.3889 86.6503 54.7634 86.6634 57.1556C86.7592 59.4593 87.5265 61.0914 88.8691 61.5713C89.1496 61.6504 89.4411 61.6828 89.7321 61.6672C92.513 61.6668 95.2939 57.251 96.7323 53.2198L96.7322 53.2199ZM89.5402 59.7473C89.1565 59.6515 88.6771 58.8834 88.5813 57.1555C88.5368 54.9878 88.9282 52.8332 89.7323 50.82C91.3627 46.1166 93.8556 43.6206 95.0066 43.6206H95.1982C96.2529 44.0046 96.6366 47.7482 95.0066 52.6439C93.1846 57.5395 90.4993 60.1315 89.5402 59.7474L89.5402 59.7473Z" fill="#EDDDD1"/>
<path d="M147.548 103.46C146.781 103.323 109.714 96.6993 76.9873 103.46C77.3667 103.314 86.7448 99.7196 100.208 97.9799L109.873 74.6255C110.389 74.9963 110.976 75.2577 111.597 75.3938L102.365 97.7193C105.488 97.3749 108.81 97.1409 112.268 97.0702V75.5881C112.903 75.6902 113.551 75.6902 114.187 75.5881V97.0526C117.485 97.0446 120.782 97.2067 124.064 97.5384L114.955 75.3939C115.562 75.2184 116.142 74.9598 116.679 74.6256L126.207 97.7813C133.55 98.6696 140.734 100.581 147.548 103.46Z" fill="#EDDDD1"/>
<path d="M113.228 64.3557C112.308 64.3652 111.411 64.6475 110.652 65.167C109.892 65.6864 109.304 66.4196 108.96 67.2739C108.617 68.1282 108.535 69.0652 108.723 69.9665C108.912 70.8677 109.364 71.6927 110.021 72.3371C110.678 72.9815 111.511 73.4163 112.415 73.5866C113.319 73.757 114.253 73.6551 115.1 73.294C115.946 72.9329 116.666 72.3287 117.169 71.5579C117.672 70.787 117.936 69.8841 117.926 68.9633C117.904 67.7316 117.399 66.5581 116.52 65.696C115.641 64.8339 114.458 64.3525 113.228 64.3557Z" fill="#EDDDD1"/>
<path d="M49.2312 39.7227L48.9617 42.3631L51.3867 43.4355L48.7949 43.9947L48.5254 46.6347L47.1934 44.34L44.6016 44.8992L46.3699 42.9218L45.0378 40.6276L47.4629 41.7L49.2312 39.7227Z" fill="#EDDDD1"/>
<path d="M63.7856 66L64.3814 69.3066L67.7074 69.7614L64.7495 71.3507L65.3453 74.6573L62.9218 72.3326L59.9639 73.9219L61.424 70.8959L59 68.5712L62.326 69.026L63.7856 66Z" fill="#EDDDD1"/>
<path d="M70.1874 46.1536L70.6335 48.6276L73.1216 48.9677L70.9087 50.1564L71.3543 52.6304L69.541 50.8913L67.3287 52.08L68.4207 49.8163L66.6074 48.0772L69.0955 48.4172L70.1874 46.1536Z" fill="#EDDDD1"/>
<path d="M48.5844 61.1641L48.9427 63.0758L50.8705 63.3254L49.1647 64.2578L49.5235 66.17L48.1104 64.834L46.4046 65.7664L47.2368 64.0087L45.8237 62.6727L47.7516 62.9218L48.5844 61.1641Z" fill="#EDDDD1"/>
<path d="M86.2067 34.6498C88.7714 34.6498 90.8505 32.5686 90.8505 30.0014C90.8505 27.4341 88.7714 25.3529 86.2067 25.3529C83.6421 25.3529 81.563 27.4341 81.563 30.0014C81.563 32.5686 83.6421 34.6498 86.2067 34.6498Z" fill="#EDDDD1"/>
<path d="M60.7201 25.6391C61.4481 25.6391 62.0383 25.0483 62.0383 24.3196C62.0383 23.5908 61.4481 23 60.7201 23C59.992 23 59.4019 23.5908 59.4019 24.3196C59.4019 25.0483 59.992 25.6391 60.7201 25.6391Z" fill="#EDDDD1"/>
<path d="M55.0589 54.0308C55.787 54.0308 56.3771 53.4401 56.3771 52.7113C56.3771 51.9825 55.787 51.3917 55.0589 51.3917C54.3309 51.3917 53.7407 51.9825 53.7407 52.7113C53.7407 53.4401 54.3309 54.0308 55.0589 54.0308Z" fill="#EDDDD1"/>
<path d="M74.0341 69.8627C74.9736 69.8627 75.7352 69.1003 75.7352 68.1599C75.7352 67.2194 74.9736 66.457 74.0341 66.457C73.0946 66.457 72.333 67.2194 72.333 68.1599C72.333 69.1003 73.0946 69.8627 74.0341 69.8627Z" fill="#EDDDD1"/>
<path fill-rule="evenodd" clip-rule="evenodd" d="M39.0466 34.5035L38.0244 35.4897C37.9587 35.5835 37.8719 35.6605 37.771 35.7145C37.6701 35.7684 37.5579 35.7978 37.4435 35.8002C37.3291 35.8026 37.2157 35.778 37.1126 35.7284C37.0095 35.6788 36.9195 35.6055 36.85 35.5146L27.1895 24.9622C27.0597 24.7717 26.9935 24.5449 27.0005 24.3144C27.0075 24.0839 27.0873 23.8616 27.2285 23.6794C27.3142 23.5958 27.4158 23.5304 27.5273 23.487C27.6388 23.4435 27.7579 23.423 27.8775 23.4267C27.9971 23.4303 28.1147 23.458 28.2234 23.5081C28.332 23.5583 28.4295 23.6298 28.51 23.7184L39.086 33.2209C39.1695 33.3067 39.2349 33.4084 39.2783 33.5201C39.3217 33.6317 39.3422 33.7509 39.3385 33.8706C39.3349 33.9903 39.3072 34.1081 39.2571 34.2168C39.2071 34.3256 39.1357 34.4232 39.0471 34.5037L39.0466 34.5035Z" fill="white"/>
<path fill-rule="evenodd" clip-rule="evenodd" d="M45.0879 41.1551C43.4673 41.9293 40.8368 40.5049 40.0222 39.4386C38.3068 36.9642 40.7562 34.7981 42.6402 36.5026C43.7961 37.4825 43.6315 39.7059 44.915 40.4718C45.3428 40.7271 45.3224 41.005 45.0878 41.1553L45.0879 41.1551Z" fill="#EDDDD1"/>
<path fill-rule="evenodd" clip-rule="evenodd" d="M40.501 35.2262L38.8619 37.0051C38.7981 37.1123 38.5205 37.0916 38.3702 36.8571L37.9425 36.6018C37.8354 36.5379 37.8561 36.2601 37.9837 36.046L39.6661 34.4381C39.9007 34.2878 40.0075 34.3515 40.2214 34.4794L40.4785 34.7781C40.6924 34.9057 40.565 35.1198 40.5011 35.227L40.501 35.2262Z" fill="#EDDDD1"/>
</svg>
