<svg width="58" height="58" viewBox="0 0 58 58" fill="none" xmlns="http://www.w3.org/2000/svg">
<path fill-rule="evenodd" clip-rule="evenodd" d="M29 55.1C43.4145 55.1 55.1 43.4145 55.1 29C55.1 14.5856 43.4145 2.9 29 2.9C14.5856 2.9 2.9 14.5856 2.9 29C2.9 43.4145 14.5856 55.1 29 55.1ZM29 58C45.0167 58 58 45.0167 58 29C58 12.9833 45.0167 0 29 0C12.9833 0 0 12.9833 0 29C0 45.0167 12.9833 58 29 58Z" fill="white"/>
<path d="M11.6 45.8635C11.6 44.3656 12.7194 43.0998 14.21 42.9345C25.3967 41.6962 32.654 41.8078 43.8161 42.962C44.3735 43.0205 44.9018 43.2401 45.3364 43.594C45.771 43.9478 46.0933 44.4206 46.2636 44.9545C46.434 45.4884 46.4452 46.0604 46.2959 46.6006C46.1466 47.1408 45.8431 47.6258 45.4227 47.9964C32.2494 59.479 24.721 59.3209 12.528 48.008C11.9335 47.457 11.6 46.674 11.6 45.8649V45.8635Z" fill="white"/>
<path fill-rule="evenodd" clip-rule="evenodd" d="M43.6668 44.4033C32.5931 43.2578 25.4403 43.1505 14.3681 44.3758C14.0036 44.4183 13.6676 44.5937 13.4244 44.8684C13.1812 45.1432 13.0479 45.498 13.05 45.8649C13.05 46.2796 13.2226 46.6726 13.514 46.9452C19.5576 52.5509 24.1367 55.084 28.6129 55.1C33.105 55.1159 37.9306 52.6031 44.4701 46.9046C44.6778 46.7197 44.8274 46.4784 44.9006 46.2101C44.9738 45.9418 44.9674 45.6579 44.8824 45.3932C44.7973 45.1284 44.6371 44.894 44.4213 44.7185C44.2055 44.5431 43.9434 44.4341 43.6668 44.4048V44.4033ZM14.0505 41.4932C25.3547 40.2418 32.7178 40.3549 43.9669 41.5193C44.8055 41.6068 45.6003 41.9369 46.2541 42.4692C46.9079 43.0015 47.3923 43.7129 47.6481 44.5163C47.9038 45.3196 47.9198 46.1802 47.694 46.9925C47.4682 47.8047 47.0105 48.5336 46.3768 49.0897C39.7431 54.8723 34.2186 58.0217 28.6042 58C22.9738 57.9797 17.6929 54.7766 11.5435 49.0709C11.1032 48.6608 10.7522 48.1643 10.5124 47.6124C10.2727 47.0606 10.1493 46.4652 10.15 45.8635C10.1479 44.7824 10.5447 43.7386 11.2645 42.9319C11.9842 42.1252 12.9762 41.6124 14.0505 41.4918V41.4932Z" fill="white"/>
<path d="M40.6 23.2C40.6 26.2765 39.3779 29.227 37.2025 31.4024C35.027 33.5778 32.0765 34.8 29 34.8C25.9235 34.8 22.973 33.5778 20.7976 31.4024C18.6222 29.227 17.4 26.2765 17.4 23.2C17.4 20.1235 18.6222 17.173 20.7976 14.9975C22.973 12.8221 25.9235 11.6 29 11.6C32.0765 11.6 35.027 12.8221 37.2025 14.9975C39.3779 17.173 40.6 20.1235 40.6 23.2Z" fill="white"/>
<path fill-rule="evenodd" clip-rule="evenodd" d="M29 31.9C31.3074 31.9 33.5203 30.9834 35.1519 29.3518C36.7834 27.7202 37.7 25.5074 37.7 23.2C37.7 20.8926 36.7834 18.6797 35.1519 17.0481C33.5203 15.4166 31.3074 14.5 29 14.5C26.6926 14.5 24.4798 15.4166 22.8482 17.0481C21.2166 18.6797 20.3 20.8926 20.3 23.2C20.3 25.5074 21.2166 27.7202 22.8482 29.3518C24.4798 30.9834 26.6926 31.9 29 31.9ZM29 34.8C32.0765 34.8 35.027 33.5778 37.2025 31.4024C39.3779 29.227 40.6 26.2765 40.6 23.2C40.6 20.1235 39.3779 17.173 37.2025 14.9975C35.027 12.8221 32.0765 11.6 29 11.6C25.9235 11.6 22.973 12.8221 20.7976 14.9975C18.6222 17.173 17.4 20.1235 17.4 23.2C17.4 26.2765 18.6222 29.227 20.7976 31.4024C22.973 33.5778 25.9235 34.8 29 34.8Z" fill="white"/>
</svg>
